Coordinates
version=1
nRows=15
nColumns=34
inDegrees=yes

Units are S.I. units (second, meters, Newtons, ...)
If the header above contains a line with 'inDegrees', this indicates whether rotational values are in degrees (yes) or radians (no).

endheader
time	pelvis_tilt	pelvis_list	pelvis_rotation	pelvis_tx	pelvis_ty	pelvis_tz	hip_flexion_r	hip_adduction_r	hip_rotation_r	knee_angle_r	ankle_angle_r	subtalar_angle_r	mtp_angle_r	hip_flexion_l	hip_adduction_l	hip_rotation_l	knee_angle_l	ankle_angle_l	subtalar_angle_l	mtp_angle_l	lumbar_extension	lumbar_bending	lumbar_rotation	arm_flex_r	arm_add_r	arm_rot_r	elbow_flex_r	pro_sup_r	arm_flex_l	arm_add_l	arm_rot_l	elbow_flex_l	pro_sup_l
      6.36666670	     -1.78838350	      1.81403971	      5.11539559	      2.91524733	      1.15361234	     -0.07041307	     -3.49366187	     -3.60453188	    -14.32544285	     25.42817295	      6.78662780	      8.25381151	      0.00000000	     19.50269226	      3.08532768	     -1.96553237	      5.71247380	      0.02292301	     -4.83551112	      0.00000000	      3.44896596	     -3.76349670	      6.04691555	      0.27670290	     -4.18161824	      6.95564096	     39.80488216	     98.95136526	     -1.73664739	     -7.13842213	      8.57482867	     23.55697638	     76.35312222
      6.38333330	     -2.09678400	      1.97695998	      4.87001707	      2.90266742	      1.14806138	     -0.06558634	     -3.09585352	     -3.47557584	    -14.41429477	     24.35904013	      8.07535597	      9.00560287	      0.00000000	     20.71691977	      2.93383419	     -2.19985191	      6.02698713	     -0.65919660	     -5.26295025	      0.00000000	      3.62090246	     -3.89862514	      5.88851029	      0.34710643	     -4.22148494	      7.33006200	     40.26523657	     98.82659827	     -1.60330514	     -7.17475373	      8.43896404	     24.05238167	     76.30665626
      6.40000000	     -2.47999487	      2.26567447	      4.58251465	      2.89127731	      1.14193384	     -0.06132570	     -2.61463145	     -3.49363708	    -14.34872807	     23.50480954	      9.38752069	      9.92335218	      0.00000000	     21.94720630	      2.90843008	     -2.44590372	      6.24979491	     -1.26632121	     -5.81820732	      0.00000000	      3.93684520	     -4.20254303	      5.62870050	      0.42103286	     -4.20304550	      7.70140587	     40.51181487	     98.67425398	     -1.54681411	     -7.24911477	      8.33564658	     24.53711204	     76.28562760
      6.41666670	     -2.86415775	      2.60786903	      4.26365419	      2.88050616	      1.13747072	     -0.05752635	     -2.02946089	     -3.60058513	    -14.13041466	     23.00848332	     10.45833416	     10.77678433	      0.00000000	     23.03270000	      2.95000411	     -2.61107099	      6.27382512	     -1.71436712	     -6.37127675	      0.00000000	      4.33623387	     -4.52961172	      5.33481015	      0.49642474	     -4.19952255	      8.01409529	     40.48105581	     98.52094048	     -1.53533141	     -7.30254651	      8.28301054	     24.91300865	     76.29097253
      6.43333330	     -2.97847176	      2.87062810	      3.91896540	      2.86956887	      1.13638750	     -0.05364617	     -1.67898186	     -3.54775357	    -13.73343971	     22.49438582	     11.15276101	     11.06355488	      0.00000000	     23.65058020	      2.90588402	     -2.88897849	      5.98880064	     -1.88590137	     -6.64706437	      0.00000000	      4.46943263	     -4.71396268	      5.02500585	      0.52817842	     -4.14814918	      8.08740946	     40.41316012	     98.46595618	     -1.42829496	     -7.31077814	      8.29677651	     25.01030399	     76.30501094
      6.45000000	     -3.00741155	      3.03252056	      3.68343635	      2.85814251	      1.13782182	     -0.04970069	     -1.30414913	     -3.43923406	    -13.77675016	     21.95235748	     11.39865907	     11.06499605	      0.00000000	     24.02424829	      2.85795302	     -3.02326297	      5.30822134	     -1.77105636	     -6.77396200	      0.00000000	      4.33867529	     -4.78370842	      4.75171461	      0.48731320	     -4.25941814	      8.07204951	     40.32811541	     98.45347315	     -1.15421808	     -7.14934106	      8.32407767	     25.11984751	     76.31330781
      6.46666670	     -3.21566062	      3.01348378	      3.29335177	      2.84696196	      1.13958000	     -0.04459309	     -0.67833967	     -3.05094657	    -13.42101359	     21.23182666	     12.67379768	     10.93138829	      0.00000000	     24.19490119	      2.61049621	     -3.04399211	      3.85706244	     -1.89081836	     -6.79189358	      0.00000000	      4.78079990	     -4.59402572	      4.46054981	      0.32158004	     -4.30509011	      8.09181688	     39.91832339	     98.40098315	     -1.22173897	     -7.03362376	      8.42011328	     25.16859893	     76.35244470
      6.48333330	     -3.56097884	      3.01052243	      3.08109335	      2.83476569	      1.13911305	     -0.03875466	      0.17701687	     -2.62007410	    -13.06261030	     20.58809824	     13.88568588	     10.52472470	      0.00000000	     24.55876349	      2.40378977	     -3.10287208	      2.47573769	     -1.76839159	     -6.75343310	      0.00000000	      5.08031774	     -4.57462464	      4.03186885	      0.31113768	     -4.28030231	      8.11411698	     39.07840195	     98.30696428	     -1.00975807	     -6.97099251	      8.58960730	     25.26329886	     76.43519210
      6.50000000	     -4.17594666	      2.93105054	      2.85168047	      2.82123207	      1.13514387	     -0.03257254	      1.42892104	     -2.08334345	    -12.69371426	     20.11396817	     14.87938423	      9.58218005	      0.00000000	     25.14021789	      2.06724393	     -3.15373610	      1.03649189	     -0.97523744	     -6.29341100	      0.00000000	      5.69606874	     -4.53720924	      3.47959444	      0.66883315	     -4.04083877	      8.23488928	     37.19677849	     98.03151355	     -1.01384541	     -7.08005698	      9.06393624	     25.25265992	     76.69884761
      6.51666670	     -4.49418375	      2.83960943	      2.87055937	      2.80695799	      1.13078701	     -0.02740654	      2.26211122	     -1.49672810	    -12.62297664	     19.61223725	     16.14940046	      9.02045675	      0.00000000	     25.60842701	      1.76692620	     -2.71851360	      0.00000000	      0.10459294	     -6.21189430	      0.00000000	      5.61040223	     -4.50494704	      2.99657091	      0.47099526	     -4.07833218	      8.25440058	     36.78281570	     97.96518130	     -0.57842740	     -7.10298131	      9.14537653	     25.38585021	     76.76153780
      6.53333330	     -5.89136873	      2.74371882	      3.05090407	      2.79467646	      1.12701667	     -0.02302964	      4.38967239	     -0.98173925	    -12.43712746	     19.48712631	     17.34407104	      7.72982274	      0.00000000	     27.65532841	      1.52363956	     -2.79978086	      0.00000000	      1.59604840	     -5.83932306	      0.00000000	      7.06048224	     -4.56000663	      2.11307435	      0.37532158	     -3.84317067	      8.15933959	     35.49061751	     97.71917247	     -0.58230481	     -7.28266949	      9.54559615	     25.44054840	     77.01185857
      6.55000000	     -7.01441160	      2.71984983	      3.23357480	      2.78561268	      1.12824600	     -0.01902003	      6.10899907	     -0.62106648	    -12.44658687	     19.41248554	     17.44698858	      6.64970009	      0.00000000	     29.13450933	      1.40303594	     -2.91795598	      0.00000000	      2.82325549	     -5.94151861	      0.00000000	      8.30770079	     -4.61357200	      1.49786855	      0.09275252	     -3.73061106	      8.04051042	     34.06887047	     97.42773778	     -0.43810517	     -7.32524985	      9.99598636	     25.55393128	     77.30885633
      6.56666670	     -7.81044946	      2.89438711	      3.41297322	      2.77867384	      1.13330209	     -0.01493963	      7.23119905	     -0.49551935	    -12.45538941	     19.08774782	     16.72054551	      5.72197407	      0.00000000	     29.81743094	      1.53294355	     -3.23242092	      0.00000000	      3.50158258	     -6.31233603	      0.00000000	      9.35526563	     -4.85092233	      0.96779119	     -0.31782432	     -3.56527105	      7.83003987	     32.69854026	     97.10709213	     -0.33232012	     -7.40380238	     10.51791706	     25.60150133	     77.63842836
      6.58333330	     -7.94731766	      3.19479690	      3.43691151	      2.77140544	      1.13917199	     -0.01110411	      7.51457125	     -0.53131290	    -12.50163107	     18.22620475	     16.73025620	      5.50772477	      0.00000000	     29.36086673	      1.81852037	     -3.91663991	      0.00000000	      3.80807491	     -6.83623014	      0.00000000	      9.63339380	     -5.13416552	      0.53769461	     -0.97133814	     -3.60860634	      7.79334335	     32.29118801	     97.06184304	     -0.20554820	     -7.34115774	     10.61924271	     25.66646249	     77.69262726
      6.60000000	     -7.87734634	      3.49546709	      3.18300843	      2.76366859	      1.14345736	     -0.00702090	      7.71109937	     -0.46441355	    -11.48522206	     16.68390000	     17.34258378	      3.83472684	      0.00000000	     28.32539586	      2.07291436	     -4.72399492	      0.00000000	      3.49434987	     -7.74492454	      0.00000000	      9.93114495	     -5.34779495	      0.41066276	     -1.24032798	     -3.27697774	      7.15693063	     30.04682942	     96.59648472	     -0.14572158	     -7.44468045	     11.68207572	     25.76081170	     78.24671009
